<svg width="10" height="6" viewBox="0 0 10 6" fill="none" xmlns="http://www.w3.org/2000/svg">
<path d="M0.840027 0H9.16003C9.32897 0.00315673 9.49323 0.0560101 9.63232 0.151961C9.7714 0.247911 9.87914 0.382707 9.94208 0.539518C10.005 0.696329 10.0204 0.868205 9.98621 1.03369C9.95205 1.19917 9.86991 1.35092 9.75003 1.47L5.59003 5.75C5.51284 5.82801 5.42096 5.88993 5.31968 5.9322C5.21841 5.97446 5.10976 5.99622 5.00003 5.99622C4.89029 5.99622 4.78164 5.97446 4.68037 5.9322C4.5791 5.88993 4.48721 5.82801 4.41003 5.75L0.250027 1.47C0.130147 1.35092 0.0480015 1.19917 0.0138467 1.03369C-0.0203082 0.868205 -0.0049585 0.696329 0.0579791 0.539518C0.120917 0.382707 0.228653 0.247911 0.367737 0.151961C0.50682 0.0560101 0.671087 0.00315673 0.840027 0Z" fill="#4B4B4B"/>
</svg>
