<svg width="20" height="16" viewBox="0 0 20 16" fill="none" xmlns="http://www.w3.org/2000/svg">
<path d="M6.79354 15.1642L0.292808 8.66477C0.199626 8.57205 0.12566 8.46136 0.0752043 8.33999C0.0247485 8.21861 -0.0012207 8.08873 -0.0012207 7.95729C-0.0012207 7.82584 0.0247485 7.69542 0.0752043 7.57404C0.12566 7.45267 0.199626 7.34252 0.292808 7.2498L1.70736 5.83646C1.80008 5.74328 1.91029 5.66932 2.03167 5.61886C2.15305 5.56841 2.2832 5.54254 2.41464 5.54254C2.54609 5.54254 2.67624 5.56841 2.79761 5.61886C2.91899 5.66932 3.02921 5.74328 3.12192 5.83646L7.50082 10.2156L16.8806 0.835919C16.9733 0.742904 17.0834 0.668673 17.2047 0.618316C17.3259 0.567958 17.456 0.541992 17.5873 0.541992C17.7186 0.541992 17.8486 0.567958 17.9699 0.618316C18.0912 0.668673 18.2013 0.742904 18.294 0.835919L19.7086 2.25034C19.8016 2.34303 19.8754 2.4533 19.9258 2.57458C19.9761 2.69586 20.002 2.82542 20.002 2.95674C20.002 3.08805 19.9761 3.21816 19.9258 3.33944C19.8754 3.46072 19.8016 3.57099 19.7086 3.66368L8.20366 15.1642C8.11097 15.2572 8.00083 15.3309 7.87956 15.3812C7.75828 15.4316 7.62827 15.4576 7.49696 15.4576C7.36564 15.4576 7.2356 15.4316 7.11433 15.3812C6.99305 15.3309 6.88291 15.2572 6.79022 15.1642H6.79354Z" fill="white"/>
</svg>
