<svg width="10" height="10" viewBox="0 0 10 10" fill="none" xmlns="http://www.w3.org/2000/svg">
<path d="M6.89583 5.00031L9.73839 2.15714C9.82142 2.07419 9.88723 1.97579 9.93217 1.86737C9.97712 1.75895 10.0003 1.64264 10.0003 1.52527C10.0003 1.4079 9.97712 1.29174 9.93217 1.18332C9.88723 1.0749 9.82142 0.976349 9.73839 0.893402L9.10645 0.261536C9.02351 0.178593 8.92505 0.11279 8.81668 0.0679016C8.70832 0.023013 8.59218 0 8.47488 0C8.35759 0 8.24145 0.023013 8.13309 0.0679016C8.02472 0.11279 7.92626 0.178593 7.84332 0.261536L5.00023 3.10471L2.15714 0.261536C1.98945 0.0941401 1.76213 0.000152588 1.52519 0.000152588C1.28826 0.000152588 1.06101 0.0941401 0.893326 0.261536L0.26207 0.893402C0.179033 0.976349 0.113227 1.0749 0.0682831 1.18332C0.0233391 1.29174 0.000152588 1.4079 0.000152588 1.52527C0.000152588 1.64264 0.0233391 1.75895 0.0682831 1.86737C0.113227 1.97579 0.179033 2.07419 0.26207 2.15714L3.10463 5.00031L0.26207 7.84348C0.178978 7.92633 0.113113 8.02471 0.0681305 8.13309C0.0231481 8.24146 0 8.3577 0 8.47504C0 8.59238 0.0231481 8.70846 0.0681305 8.81683C0.113113 8.92521 0.178978 9.02375 0.26207 9.1066L0.893326 9.73846C1.06101 9.90586 1.28826 9.99985 1.52519 9.99985C1.76213 9.99985 1.98945 9.90586 2.15714 9.73846L5.00023 6.8959L7.84332 9.73846C7.92626 9.82141 8.02472 9.88721 8.13309 9.9321C8.24145 9.97699 8.35759 10 8.47488 10C8.59218 10 8.70832 9.97699 8.81668 9.9321C8.92505 9.88721 9.02351 9.82141 9.10645 9.73846L9.73839 9.1066C9.82148 9.02375 9.88735 8.92521 9.93233 8.81683C9.97731 8.70846 10.0005 8.59238 10.0005 8.47504C10.0005 8.3577 9.97731 8.24146 9.93233 8.13309C9.88735 8.02471 9.82148 7.92633 9.73839 7.84348L6.89583 5.00031Z" fill="#840016"/>
</svg>
