<svg width="18" height="17" viewBox="0 0 18 17" fill="none" xmlns="http://www.w3.org/2000/svg">
<path d="M9.00013 0.500003C11.0648 0.498316 13.0511 1.29089 14.5474 2.71354C16.0438 4.1362 16.9356 6.07985 17.0381 8.14201C17.1406 10.2042 16.446 12.2268 15.0981 13.7909C13.7502 15.3549 11.8524 16.3405 9.7977 16.5436C7.743 16.7467 5.68891 16.1517 4.0609 14.8818C2.43289 13.6119 1.35574 11.7645 1.05254 9.72217C0.749337 7.67985 1.24333 5.59913 2.4322 3.91105C3.62107 2.22297 5.41371 1.05688 7.43879 0.6543C7.95287 0.551472 8.47587 0.499812 9.00013 0.500003Z" fill="#3366CC"/>
<path d="M9 3.16657C8.70978 3.17182 8.42758 3.26265 8.18882 3.42772C7.95006 3.59278 7.76536 3.82473 7.65794 4.09438C7.55051 4.36404 7.52513 4.65939 7.58498 4.94342C7.64483 5.22745 7.78726 5.48744 7.99436 5.69082C8.20147 5.8942 8.46404 6.03189 8.7491 6.08657C9.03417 6.14125 9.32904 6.1105 9.5967 5.99819C9.86436 5.88589 10.0929 5.69702 10.2536 5.4553C10.4143 5.21358 10.5 4.92982 10.5 4.63955C10.4983 4.44433 10.4581 4.25136 10.3817 4.07168C10.3054 3.89199 10.1944 3.72914 10.0551 3.59235C9.91584 3.45556 9.75095 3.34753 9.56991 3.27448C9.38886 3.20142 9.19522 3.16476 9 3.16657ZM7.41667 11.8466H7.83333V8.89085H7.41667C7.36242 8.89138 7.30859 8.8812 7.25828 8.8609C7.20797 8.84061 7.16215 8.81063 7.12345 8.77261C7.08475 8.73459 7.05392 8.68933 7.03274 8.63939C7.01155 8.58944 7.00044 8.53576 7 8.48151V7.50421C7.00044 7.44996 7.01155 7.39636 7.03274 7.34642C7.05392 7.29647 7.08475 7.25114 7.12345 7.21312C7.16215 7.1751 7.20797 7.14511 7.25828 7.12482C7.30859 7.10453 7.36242 7.09434 7.41667 7.09487H9.75C9.85951 7.09398 9.96489 7.13661 10.043 7.21336C10.1211 7.29011 10.1656 7.39471 10.1667 7.50421V11.8466H10.5833C10.6376 11.8461 10.6914 11.8563 10.7417 11.8766C10.792 11.8969 10.8378 11.9269 10.8764 11.9649C10.9151 12.0029 10.946 12.0482 10.9672 12.0981C10.9884 12.1481 10.9995 12.2016 11 12.2558V13.2335C10.9989 13.343 10.9545 13.4476 10.8763 13.5243C10.7982 13.601 10.6928 13.6435 10.5833 13.6426H7.41667C7.36243 13.6431 7.30861 13.633 7.2583 13.6127C7.20799 13.5924 7.16218 13.5625 7.12347 13.5245C7.08477 13.4865 7.05394 13.4413 7.03276 13.3913C7.01157 13.3414 7.00044 13.2878 7 13.2335V12.2558C7.00039 12.2016 7.01149 12.1479 7.03265 12.098C7.05382 12.048 7.08464 12.0028 7.12335 11.9647C7.16206 11.9267 7.20789 11.8966 7.25822 11.8764C7.30855 11.8561 7.36241 11.846 7.41667 11.8466Z" fill="#F6F8F9"/>
</svg>
