<svg width="48" height="48" viewBox="0 0 48 48" fill="none" xmlns="http://www.w3.org/2000/svg">
<path d="M23.8288 27.2793L31.1711 34.6353L31.233 34.6972C31.6867 35.1407 32.2967 35.3877 32.9311 35.3847C33.2598 35.3848 33.5851 35.3184 33.8875 35.1896C34.19 35.0609 34.4633 34.8723 34.691 34.6353C35.1288 34.1659 35.3665 33.5444 35.3537 32.9027C35.3408 32.261 35.0785 31.6495 34.6223 31.1979L27.28 23.8213L34.6223 16.4652C35.0724 16.0064 35.3246 15.3893 35.3246 14.7465C35.3246 14.1038 35.0724 13.4867 34.6223 13.0278C34.1652 12.5744 33.5474 12.32 32.9036 12.32C32.2598 12.32 31.642 12.5744 31.1849 13.0278L23.8288 20.3564L16.4865 13.0003L16.4109 12.9384C15.9573 12.495 15.3472 12.248 14.7128 12.251C14.3876 12.2537 14.0662 12.3214 13.7675 12.45C13.4688 12.5787 13.1989 12.7658 12.9735 13.0003C12.5357 13.4697 12.2981 14.0912 12.3109 14.733C12.3237 15.3747 12.5861 15.9862 13.0423 16.4377L20.3708 23.8144L13.0354 31.1704C12.5853 31.6293 12.3331 32.2464 12.3331 32.8891C12.3331 33.5319 12.5853 34.149 13.0354 34.6078C13.4925 35.0613 14.1103 35.3157 14.7541 35.3157C15.3979 35.3157 16.0157 35.0613 16.4728 34.6078L23.8151 27.2518L23.8288 27.2793ZM23.9732 48C18.0236 47.9933 12.2885 45.777 7.88054 41.7809C3.47261 37.7849 0.706094 32.294 0.117704 26.3735C-0.470686 20.453 1.16099 14.525 4.6962 9.73956C8.23141 4.95409 13.4181 1.65233 19.2501 0.4748C25.082 -0.702726 31.1435 0.32794 36.2585 3.36685C41.3735 6.40576 45.1774 11.2362 46.9323 16.9212C48.6871 22.6062 48.2678 28.7403 45.7557 34.1336C43.2435 39.5269 38.8177 43.7948 33.3367 46.1094C30.3741 47.3617 27.1896 48.0047 23.9732 48Z" fill="#A80521"/>
</svg>
