<svg width="30" height="30" viewBox="0 0 20 20" fill="none" xmlns="http://www.w3.org/2000/svg">
<path d="M8.9285 0.69833L6.48399 5.85149L1.00304 6.68173C0.780525 6.71599 0.571786 6.81516 0.400829 6.96785C0.229871 7.12053 0.103639 7.32053 0.0366492 7.54483C-0.0303407 7.76913 -0.0353674 8.00863 0.0221472 8.23578C0.0796617 8.46293 0.197382 8.66851 0.361769 8.82888L4.31354 12.8369L3.38177 18.5168C3.34408 18.7462 3.36853 18.9821 3.45238 19.1977C3.53622 19.4134 3.67611 19.6002 3.85626 19.7372C4.0364 19.8742 4.24962 19.9558 4.47182 19.9729C4.69403 19.9899 4.91638 19.9417 5.11375 19.8337L10.0028 17.177L14.8863 19.8566C15.084 19.9639 15.3064 20.0116 15.5286 19.9943C15.7508 19.977 15.964 19.8954 16.1443 19.7587C16.3247 19.622 16.465 19.4356 16.5497 19.2203C16.6344 19.005 16.66 18.7694 16.6238 18.5397L15.6865 12.8598L19.6383 8.85178C19.7982 8.68917 19.9113 8.48303 19.9649 8.2567C20.0184 8.03037 20.0102 7.7929 19.9412 7.5712C19.8721 7.3495 19.745 7.15242 19.5743 7.0023C19.4036 6.85218 19.196 6.75501 18.9751 6.72181L13.4941 5.89157L11.0496 0.73841C10.951 0.529517 10.7983 0.353632 10.609 0.230646C10.4196 0.107659 10.2011 0.0424805 9.9781 0.0424805C9.75513 0.0424805 9.5366 0.107659 9.34724 0.230646C9.15787 0.353632 9.00523 0.529517 8.90657 0.73841L8.9285 0.69833Z" fill="#FFAB00"/>
</svg>
