<svg width="70" height="70" viewBox="0 0 70 70" fill="none" xmlns="http://www.w3.org/2000/svg">
<path d="M18.6992 35.6939C18.3274 35.6931 17.9591 35.766 17.6157 35.9085C17.2722 36.051 16.9605 36.2602 16.6985 36.524C16.4333 36.785 16.2232 37.0965 16.0805 37.4401C15.9379 37.7837 15.8657 38.1524 15.8682 38.5244C15.8688 39.2749 16.1674 39.9944 16.6985 40.5247L26.4419 50.3465C26.4936 50.4005 26.5557 50.4435 26.6245 50.4727C26.6933 50.5019 26.7673 50.5168 26.8421 50.5165C26.9984 50.5139 27.1481 50.4533 27.2622 50.3465L53.5916 23.9918C54.1123 23.456 54.4035 22.7385 54.4035 21.9914C54.4035 21.2444 54.1123 20.5268 53.5916 19.9911C53.0615 19.4583 52.3425 19.1564 51.5909 19.1509C51.2181 19.1498 50.8489 19.2235 50.5052 19.3679C50.1615 19.5122 49.8503 19.7241 49.5902 19.9911L27.2923 42.2651C27.1797 42.3668 27.0338 42.4237 26.8821 42.4251C26.8081 42.4261 26.7347 42.4125 26.666 42.3851C26.5973 42.3576 26.5348 42.3168 26.482 42.2651L20.7099 36.524C20.4471 36.2586 20.1338 36.0484 19.7885 35.9058C19.4431 35.7633 19.0728 35.6912 18.6992 35.6939ZM35.005 70C28.0819 69.9985 21.3146 67.945 15.5585 64.099C9.80241 60.253 5.31592 54.7871 2.66611 48.3923C0.016305 41.9975 -0.677871 34.9608 0.671327 28.1716C2.02053 21.3825 5.35253 15.1456 10.2462 10.2494C16.812 3.6867 25.7159 0 35 0C44.284 0 53.188 3.6867 59.7538 10.2494C64.6469 15.145 67.9787 21.3809 69.3282 28.1692C70.6777 34.9574 69.9844 41.9933 67.3358 48.3877C64.6872 54.7821 60.2023 60.2481 54.4477 64.0948C48.6932 67.9416 41.9273 69.9965 35.005 70Z" fill="#069169"/>
</svg>
