<svg xmlns="http://www.w3.org/2000/svg" viewBox="0 0 383.26 383.34"><defs><style>.cls-1{fill:#c6c6c6;}</style></defs><g id="Capa_2" data-name="Capa 2"><g id="Capa_1-2" data-name="Capa 1"><path class="cls-1" d="M354.81,383.34H28.45c-1.06-.33-2.11-.69-3.17-1C10.29,378.24,0,365.24,0,350.09Q0,191.62,0,33.15A33.39,33.39,0,0,1,33.14,0Q191.57,0,350,0c8.61,0,16,3.14,22.38,8.84,5.92,5.28,8.88,12.16,10.87,19.6V354.89c-2,7.67-5.21,14.63-11.32,20C367,379.33,361,381.61,354.81,383.34ZM22.45,98.83v3.77q0,122.58,0,245.16c0,8.61,4.53,13.12,13.17,13.12H347.35c9.08,0,13.45-4.42,13.45-13.6q0-137.17,0-274.35V69.1c-.84-.13-1.09-.2-1.33-.2q-50.89,0-101.79.06a6.62,6.62,0,0,0-4.06,2c-7.76,7.58-15.47,15.23-23,23a15.47,15.47,0,0,1-11.94,5Q123,98.74,27.43,98.83ZM67.8,22.64c-.22.37-.33.47-.33.57,0,6.12,0,12.23-.13,18.34a11.2,11.2,0,0,1-22.4-.07c-.1-6.3,0-12.6,0-19-3.59,0-6.57,0-9.56,0-8.33.05-12.88,4.62-12.9,13q0,18.72,0,37.43c0,1.08.13,2.16.21,3.35,1,0,1.72.11,2.45.11q94.13,0,188.24-.08a7.09,7.09,0,0,0,4.49-1.85q11.93-11.61,23.58-23.52a14.33,14.33,0,0,1,11-4.55c34.56.1,69.11.05,103.67.05h4.74v-10c0-9.69-4.24-14-13.83-14q-92.82,0-185.63,0h-4.16c0,6.23,0,12,0,17.68,0,7.32-4.5,12.24-11.16,12.26s-11.26-4.87-11.28-12.13c0-5.83,0-11.66,0-17.57H112.59a4.25,4.25,0,0,0-.26.93c0,5.61,0,11.23,0,16.84,0,7-4.6,11.89-11.12,11.93-6.7.05-11.3-4.85-11.33-12.09,0-5.83,0-11.66,0-17.67Z"/><path class="cls-1" d="M191.64,338.42H117.93c-8,0-12.37-4.42-12.38-12.53q0-21.13,0-42.28c0-8.13,4.35-12.56,12.35-12.56H265.32c8,0,12.38,4.42,12.39,12.52q0,21.15,0,42.29c0,8.25-4.38,12.56-12.73,12.56Zm63.45-44.66H128.3v22H255.09Z"/><path class="cls-1" d="M227.63,185.14c0,7.73.38,15.48-.08,23.19-1.1,18.27-17.15,32.74-35.85,32.75s-35.14-14.4-35.93-32.62c-.67-15.43-.69-30.93-.05-46.37.72-17.44,15.32-31.92,32.29-33.25,18.43-1.44,35.12,9.93,38.58,27.63,1.7,8.69,1,17.85,1.35,26.8,0,.62,0,1.25,0,1.87Zm-22.44,0c0-6.61,0-13.21,0-19.81-.07-8-5.87-14-13.45-14.05a13.57,13.57,0,0,0-13.63,13.85q-.09,19.81,0,39.63a13.59,13.59,0,0,0,13.63,13.87c7.58-.08,13.38-6.09,13.45-14.05C205.23,198.08,205.19,191.6,205.19,185.12Z"/><path class="cls-1" d="M125.8,215.14c0,4.91.06,9.64,0,14.37-.11,6.62-4.63,11.45-10.7,11.57a11.85,11.85,0,0,1-11.73-11.62c-.12-4.71,0-9.44,0-14.69H93.55c-7.35,0-14.71,0-22.06,0-10.76-.08-16-8.85-10.73-18.16q15.92-28.08,32.17-56a29,29,0,0,1,7.48-8.66c10-7.39,23.61-1.34,25.22,11.31.83,6.52.64,13.18.71,19.78.09,8.6,0,17.2-.07,25.8,0,1.69,0,3,2.21,3.57,6,1.55,9.27,5.76,9.15,11.1s-3.56,9.34-9.48,11Zm-22.5-46.7-.65-.27c-4.36,7.68-8.71,15.37-13.34,23.53h14Z"/><path class="cls-1" d="M312.94,215.17c0,5,.06,9.68,0,14.41-.11,6.59-4.69,11.42-10.77,11.5a11.83,11.83,0,0,1-11.65-11.31c-.16-4.83,0-9.68,0-15H275c-5.61,0-11.22.07-16.82,0-10.25-.16-15.47-9-10.43-17.88q15.9-28.1,32.17-56a29.73,29.73,0,0,1,7.68-8.95c10.06-7.39,23.62-1.28,25.16,11.4.85,7,.63,14.18.71,21.27.08,8.11-.11,16.21,0,24.31,0,1.13.95,2.92,1.88,3.26,6.36,2.33,9.55,6,9.39,11.4s-3.6,9.28-9.91,11Zm-22.49-46.8-.71-.15c-4.36,7.71-8.72,15.41-13.25,23.4h14Z"/></g></g></svg>